<svg width="215" height="42" viewBox="0 0 215 42" fill="none" xmlns="http://www.w3.org/2000/svg">
<path d="M22.5246 33.1116C22.5606 29.4402 21.6298 26.4546 20.4458 26.443C19.2617 26.4314 18.2727 29.3983 18.2369 33.0697C18.201 36.7411 19.1318 39.7268 20.3158 39.7383C21.4998 39.7499 22.4888 36.783 22.5246 33.1116Z" fill="#640EF1"/>
<path d="M15.6576 32.2777C17.6728 29.2086 18.5041 26.1937 17.5144 25.5438C16.5245 24.8939 14.0884 26.855 12.0732 29.9241C10.058 32.9933 9.22669 36.0081 10.2164 36.6581C11.2063 37.308 13.6423 35.3469 15.6576 32.2777Z" fill="#640EF1"/>
<path d="M10.3233 27.8744C13.6781 26.3822 16.0074 24.2955 15.5261 23.2136C15.0449 22.1317 11.9353 22.4643 8.58062 23.9565C5.22593 25.4487 2.89655 27.5354 3.37779 28.6174C3.85902 29.6993 6.96865 29.3666 10.3233 27.8744Z" fill="#640EF1"/>
<path d="M15.1235 20.1796C15.3037 19.0093 12.5079 17.6078 8.87911 17.0492C5.25022 16.4907 2.16243 16.9867 1.9823 18.157C1.80217 19.3273 4.59791 20.7287 8.22678 21.2873C11.8556 21.8459 14.9434 21.3499 15.1235 20.1796Z" fill="#640EF1"/>
<path d="M16.4264 17.3916C17.2106 16.5044 15.616 13.8141 12.8649 11.3826C10.1137 8.95121 7.24784 7.6994 6.4637 8.58665C5.67956 9.47392 7.27412 12.1642 10.0253 14.5957C12.7764 17.0271 15.6423 18.2789 16.4264 17.3916Z" fill="#640EF1"/>
<path d="M19.0211 15.7623C20.1605 15.4399 20.2737 12.3145 19.274 8.78164C18.2743 5.24877 16.5402 2.64618 15.4009 2.96859C14.2615 3.29099 14.1483 6.41631 15.148 9.94921C16.1477 13.482 17.8818 16.0847 19.0211 15.7623Z" fill="#640EF1"/>
<path d="M26.0667 10.0591C27.1359 6.54664 27.0844 3.4197 25.9516 3.07489C24.8188 2.73007 23.0338 5.29796 21.9646 8.81043C20.8954 12.3229 20.947 15.4498 22.0798 15.7946C23.2126 16.1394 24.9976 13.5716 26.0667 10.0591Z" fill="#640EF1"/>
<path d="M31.1011 14.8052C33.8993 12.428 35.5462 9.76935 34.7795 8.86698C34.0128 7.96458 31.123 9.16015 28.3249 11.5373C25.5267 13.9145 23.8799 16.5731 24.6466 17.4755C25.4132 18.3779 28.3031 17.1824 31.1011 14.8052Z" fill="#640EF1"/>
<path d="M32.7658 21.5215C36.405 21.0346 39.2278 19.6885 39.0707 18.5149C38.9138 17.3413 35.8363 16.7845 32.1971 17.2713C28.558 17.7582 25.7351 19.1043 25.8922 20.278C26.0492 21.4516 29.1266 22.0084 32.7658 21.5215Z" fill="#640EF1"/>
<path d="M37.4603 28.9528C37.9628 27.8806 35.675 25.7484 32.3504 24.1903C29.0258 22.6322 25.9234 22.2384 25.4209 23.3106C24.9184 24.3828 27.2062 26.515 30.5308 28.0731C33.8554 29.6311 36.9579 30.025 37.4603 28.9528Z" fill="#640EF1"/>
<path d="M30.4671 36.8639C31.4695 36.2337 30.6978 33.203 28.7435 30.0947C26.7892 26.9865 24.3922 24.9778 23.3898 25.608C22.3874 26.2382 23.1591 29.269 25.1134 32.3772C27.0678 35.4854 29.4647 37.4942 30.4671 36.8639Z" fill="#640EF1"/>
<path d="M53.024 11.344V31H48.236V11.344H53.024ZM66.0138 15.208C67.8431 15.208 69.2991 15.8053 70.3818 17C71.4831 18.176 72.0338 19.8 72.0338 21.872V31H67.2738V22.516C67.2738 21.4707 67.0031 20.6587 66.4618 20.08C65.9205 19.5013 65.1925 19.212 64.2778 19.212C63.3631 19.212 62.6351 19.5013 62.0938 20.08C61.5525 20.6587 61.2818 21.4707 61.2818 22.516V31H56.4938V15.376H61.2818V17.448C61.7671 16.7573 62.4205 16.216 63.2418 15.824C64.0631 15.4133 64.9871 15.208 66.0138 15.208ZM83.201 19.352H80.625V31H75.837V19.352H74.101V15.376H75.837V14.928C75.837 13.0053 76.3877 11.5493 77.489 10.56C78.5903 9.552 80.205 9.048 82.333 9.048C82.6877 9.048 82.949 9.05733 83.117 9.076V13.136C82.2023 13.08 81.5583 13.2107 81.185 13.528C80.8117 13.8453 80.625 14.4147 80.625 15.236V15.376H83.201V19.352ZM92.5628 31.224C91.0322 31.224 89.6508 30.8973 88.4188 30.244C87.2055 29.5907 86.2442 28.6573 85.5348 27.444C84.8442 26.2307 84.4988 24.812 84.4988 23.188C84.4988 21.5827 84.8535 20.1733 85.5628 18.96C86.2722 17.728 87.2428 16.7853 88.4748 16.132C89.7068 15.4787 91.0882 15.152 92.6188 15.152C94.1495 15.152 95.5308 15.4787 96.7628 16.132C97.9948 16.7853 98.9655 17.728 99.6748 18.96C100.384 20.1733 100.739 21.5827 100.739 23.188C100.739 24.7933 100.375 26.212 99.6468 27.444C98.9375 28.6573 97.9575 29.5907 96.7068 30.244C95.4748 30.8973 94.0935 31.224 92.5628 31.224ZM92.5628 27.08C93.4775 27.08 94.2522 26.744 94.8868 26.072C95.5402 25.4 95.8668 24.4387 95.8668 23.188C95.8668 21.9373 95.5495 20.976 94.9148 20.304C94.2988 19.632 93.5335 19.296 92.6188 19.296C91.6855 19.296 90.9108 19.632 90.2948 20.304C89.6788 20.9573 89.3708 21.9187 89.3708 23.188C89.3708 24.4387 89.6695 25.4 90.2668 26.072C90.8828 26.744 91.6482 27.08 92.5628 27.08ZM108.067 17.98C108.627 17.1213 109.327 16.4493 110.167 15.964C111.007 15.46 111.94 15.208 112.967 15.208V20.276H111.651C110.456 20.276 109.56 20.5373 108.963 21.06C108.366 21.564 108.067 22.46 108.067 23.748V31H103.279V15.376H108.067V17.98ZM135.192 15.208C137.133 15.208 138.673 15.796 139.812 16.972C140.969 18.148 141.548 19.7813 141.548 21.872V31H136.788V22.516C136.788 21.508 136.517 20.7333 135.976 20.192C135.453 19.632 134.725 19.352 133.792 19.352C132.858 19.352 132.121 19.632 131.58 20.192C131.057 20.7333 130.796 21.508 130.796 22.516V31H126.036V22.516C126.036 21.508 125.765 20.7333 125.224 20.192C124.701 19.632 123.973 19.352 123.04 19.352C122.106 19.352 121.369 19.632 120.828 20.192C120.305 20.7333 120.044 21.508 120.044 22.516V31H115.256V15.376H120.044V17.336C120.529 16.6827 121.164 16.1693 121.948 15.796C122.732 15.404 123.618 15.208 124.608 15.208C125.784 15.208 126.829 15.46 127.744 15.964C128.677 16.468 129.405 17.1867 129.928 18.12C130.469 17.2613 131.206 16.5613 132.14 16.02C133.073 15.4787 134.09 15.208 135.192 15.208ZM143.944 23.16C143.944 21.5547 144.243 20.1453 144.84 18.932C145.456 17.7187 146.287 16.7853 147.332 16.132C148.377 15.4787 149.544 15.152 150.832 15.152C151.933 15.152 152.895 15.376 153.716 15.824C154.556 16.272 155.2 16.86 155.648 17.588V15.376H160.436V31H155.648V28.788C155.181 29.516 154.528 30.104 153.688 30.552C152.867 31 151.905 31.224 150.804 31.224C149.535 31.224 148.377 30.8973 147.332 30.244C146.287 29.572 145.456 28.6293 144.84 27.416C144.243 26.184 143.944 24.7653 143.944 23.16ZM155.648 23.188C155.648 21.9933 155.312 21.0507 154.64 20.36C153.987 19.6693 153.184 19.324 152.232 19.324C151.28 19.324 150.468 19.6693 149.796 20.36C149.143 21.032 148.816 21.9653 148.816 23.16C148.816 24.3547 149.143 25.3067 149.796 26.016C150.468 26.7067 151.28 27.052 152.232 27.052C153.184 27.052 153.987 26.7067 154.64 26.016C155.312 25.3253 155.648 24.3827 155.648 23.188ZM172.608 26.94V31H170.172C168.436 31 167.083 30.58 166.112 29.74C165.141 28.8813 164.656 27.4907 164.656 25.568V19.352H162.752V15.376H164.656V11.568H169.444V15.376H172.58V19.352H169.444V25.624C169.444 26.0907 169.556 26.4267 169.78 26.632C170.004 26.8373 170.377 26.94 170.9 26.94H172.608ZM177.683 13.752C176.843 13.752 176.152 13.5093 175.611 13.024C175.088 12.52 174.827 11.904 174.827 11.176C174.827 10.4293 175.088 9.81333 175.611 9.328C176.152 8.824 176.843 8.572 177.683 8.572C178.504 8.572 179.176 8.824 179.699 9.328C180.24 9.81333 180.511 10.4293 180.511 11.176C180.511 11.904 180.24 12.52 179.699 13.024C179.176 13.5093 178.504 13.752 177.683 13.752ZM180.063 15.376V31H175.275V15.376H180.063ZM182.581 23.188C182.581 21.564 182.908 20.1453 183.561 18.932C184.233 17.7187 185.157 16.7853 186.333 16.132C187.528 15.4787 188.89 15.152 190.421 15.152C192.381 15.152 194.014 15.6653 195.321 16.692C196.646 17.7187 197.514 19.1653 197.925 21.032H192.829C192.4 19.8373 191.569 19.24 190.337 19.24C189.46 19.24 188.76 19.5853 188.237 20.276C187.714 20.948 187.453 21.9187 187.453 23.188C187.453 24.4573 187.714 25.4373 188.237 26.128C188.76 26.8 189.46 27.136 190.337 27.136C191.569 27.136 192.4 26.5387 192.829 25.344H197.925C197.514 27.1733 196.646 28.6107 195.321 29.656C193.996 30.7013 192.362 31.224 190.421 31.224C188.89 31.224 187.528 30.8973 186.333 30.244C185.157 29.5907 184.233 28.6573 183.561 27.444C182.908 26.2307 182.581 24.812 182.581 23.188ZM206.842 31.224C205.479 31.224 204.266 30.9907 203.202 30.524C202.138 30.0573 201.298 29.4227 200.682 28.62C200.066 27.7987 199.721 26.884 199.646 25.876H204.378C204.434 26.4173 204.686 26.856 205.134 27.192C205.582 27.528 206.133 27.696 206.786 27.696C207.383 27.696 207.841 27.584 208.158 27.36C208.494 27.1173 208.662 26.8093 208.662 26.436C208.662 25.988 208.429 25.6613 207.962 25.456C207.495 25.232 206.739 24.9893 205.694 24.728C204.574 24.4667 203.641 24.196 202.894 23.916C202.147 23.6173 201.503 23.16 200.962 22.544C200.421 21.9093 200.15 21.06 200.15 19.996C200.15 19.1 200.393 18.288 200.878 17.56C201.382 16.8133 202.11 16.2253 203.062 15.796C204.033 15.3667 205.181 15.152 206.506 15.152C208.466 15.152 210.006 15.6373 211.126 16.608C212.265 17.5787 212.918 18.8667 213.086 20.472H208.662C208.587 19.9307 208.345 19.5013 207.934 19.184C207.542 18.8667 207.019 18.708 206.366 18.708C205.806 18.708 205.377 18.82 205.078 19.044C204.779 19.2493 204.63 19.5387 204.63 19.912C204.63 20.36 204.863 20.696 205.33 20.92C205.815 21.144 206.562 21.368 207.57 21.592C208.727 21.8907 209.67 22.1893 210.398 22.488C211.126 22.768 211.761 23.2347 212.302 23.888C212.862 24.5227 213.151 25.3813 213.17 26.464C213.17 27.3787 212.909 28.2 212.386 28.928C211.882 29.6373 211.145 30.1973 210.174 30.608C209.222 31.0187 208.111 31.224 206.842 31.224Z" fill="#640EF1"/>
</svg>
